<svg xmlns="http://www.w3.org/2000/svg" width="55" height="55" fill="none" viewBox="0 0 55 55">
  <path fill="#D2D6D9" d="M35.9 15H19.1v2.1h16.8V15ZM19.1 40.2h16.8v-2.1H19.1v2.1Zm16.8-21H19.1c-1.155 0-2.1.945-2.1 2.1v12.6c0 1.155.945 2.1 2.1 2.1h16.8c1.155 0 2.1-.945 2.1-2.1V21.3c0-1.155-.945-2.1-2.1-2.1Zm-8.4 2.887a2.366 2.366 0 0 1 2.363 2.363 2.366 2.366 0 0 1-2.363 2.363 2.366 2.366 0 0 1-2.363-2.363 2.366 2.366 0 0 1 2.363-2.363Zm5.25 10.763h-10.5v-1.575c0-1.753 3.497-2.625 5.25-2.625 1.753 0 5.25.872 5.25 2.625v1.575Z"/>
</svg>
